<svg xmlns="http://www.w3.org/2000/svg" xmlns:xlink="http://www.w3.org/1999/xlink" x="0px" y="0px" viewBox="0 0 200 200" xml:space="preserve"><g id="Calque_3">	<g id="services_1_" display="none">		<g id="services_2_" display="inline">			<path fill="#FFFFFF" stroke="#636569" stroke-width="4.8713" stroke-miterlimit="10" d="M131.8,103.8c9-4.5,15.2-13.7,15.2-24.4    c0-15.2-12.2-27.4-27.4-27.4S92.2,64.5,92.2,79.5c0,10.9,6.4,20.1,15.4,24.6C88.1,110.5,74,131.2,74,155.8c0,0.4,0,0.6,0,1.1    h91.7c0-0.4,0-0.6,0-1.1C166,131,151.4,110,131.8,103.8z"></path>			<path fill="#FFFFFF" stroke="#EA571C" stroke-width="7.3048" stroke-miterlimit="10" d="M139,161.6c0-29.3-17.1-53.9-40.2-61.2    c10.5-5.3,17.7-16.3,17.7-28.9c0-17.7-14.5-32.3-32.3-32.3S52,53.8,52,71.6c0,12.8,7.5,23.7,18.2,28.9    c-22.9,7.5-39.6,32.1-39.6,61.2c0,0.4,0,0.9,0,1.3"></path>			<path fill="#FFFFFF" stroke="#EA571C" stroke-width="7.3048" stroke-miterlimit="10" d="M136,162.6"></path>		</g>	</g></g><g id="pellet" display="none">	<g display="inline">		<g id="so-ilo_3_">			<polygon fill="#FFFFFF" stroke="#636569" stroke-width="3.7132" stroke-miterlimit="10" points="74.5,61.4 74.5,161 162.4,161     162.4,61.4 119.4,36    "></polygon>			<polyline fill="#FFFFFF" stroke="#636569" stroke-width="5.5708" stroke-miterlimit="10" points="137,168.9 137,57.5 88.2,28.2     39.3,57.5 39.3,168.9    "></polyline>		</g>		<g>			<g>				<g>					<path fill="#FFFFFF" d="M78.4,151.3l27.3-31.3c3.9-3.9,9.8-3.9,15.6,0l0,0c3.9,3.9,5.9,11.7,2,15.6L96,166.9      c-3.9,3.9-11.7,5.9-15.6,2l0,0C74.5,163,74.5,155.2,78.4,151.3z"></path>					<path fill="none" stroke="#EA571C" stroke-width="3.4182" stroke-miterlimit="10" d="M78.4,151.3l27.3-31.3      c3.9-3.9,9.8-3.9,15.6,0l0,0c3.9,3.9,5.9,11.7,2,15.6L96,166.9c-3.9,3.9-11.7,5.9-15.6,2l0,0C74.5,163,74.5,155.2,78.4,151.3z"></path>				</g>				<g>					<path fill="#FFFFFF" d="M64.7,110.3L92.1,79c3.9-3.9,11.7-3.9,15.6,0l0,0c3.9,3.9,5.9,11.7,2,15.6l-27.3,31.3      c-3.9,3.9-11.7,3.9-15.6,0l0,0C60.8,122,60.8,114.2,64.7,110.3z"></path>					<path fill="none" stroke="#EA571C" stroke-width="3.4182" stroke-miterlimit="10" d="M64.7,110.3L92.1,79      c3.9-3.9,11.7-3.9,15.6,0l0,0c3.9,3.9,5.9,11.7,2,15.6l-27.3,31.3c-3.9,3.9-11.7,3.9-15.6,0l0,0      C60.8,122,60.8,114.2,64.7,110.3z"></path>				</g>				<g>					<path fill="#FFFFFF" d="M68.6,98.5l31.3,27.3c3.9,3.9,3.9,9.8,0,15.6l0,0c-3.9,3.9-11.7,3.9-15.6,0L53,114.2      c-3.9-3.9-3.9-9.8,0-15.6l0,0C56.9,94.6,64.7,94.6,68.6,98.5z"></path>					<path fill="none" stroke="#EA571C" stroke-width="3.4182" stroke-miterlimit="10" d="M68.6,98.5l31.3,27.3      c3.9,3.9,3.9,9.8,0,15.6l0,0c-3.9,3.9-11.7,3.9-15.6,0L53,114.2c-3.9-3.9-3.9-9.8,0-15.6l0,0C56.9,94.6,64.7,94.6,68.6,98.5z"></path>				</g>				<g>					<path fill="#FFFFFF" d="M84.3,51.7L115.5,79c3.9,3.9,5.9,9.8,0,15.6l0,0c-3.9,3.9-9.8,3.9-15.6,0L70.6,69.2      c-5.9-5.9-5.9-11.7-2-17.6l0,0C72.5,47.7,80.3,47.7,84.3,51.7z"></path>					<path fill="none" stroke="#EA571C" stroke-width="3.4182" stroke-miterlimit="10" d="M84.3,51.7L115.5,79      c3.9,3.9,5.9,9.8,0,15.6l0,0c-3.9,3.9-9.8,3.9-15.6,0L70.6,69.2c-5.9-5.9-5.9-11.7-2-17.6l0,0C72.5,47.7,80.3,47.7,84.3,51.7z"></path>				</g>			</g>		</g>	</g></g><g id="bio" display="none">	<g id="Calque_5">		<rect x="91.5" y="92.7" display="inline" fill="#FFFFFF" width="14.6" height="15"></rect>	</g>	<g id="manutention">		<polygon display="inline" fill="#FFFFFF" stroke="#636569" stroke-width="0.1696" stroke-miterlimit="10" points="98.8,102.6    97.3,100 97,100.4 95.2,98.6 94.8,99 96.6,100.8 96.2,101.1   "></polygon>		<polygon display="inline" fill="#FFFFFF" stroke="#EA571C" stroke-width="0.2544" stroke-miterlimit="10" points="103.2,98.9    100.8,100.3 101.1,100.6 99.5,102.2 99.9,102.6 101.5,101 101.8,101.3   "></polygon>	</g>	<g id="sechage">		<g display="inline">			<path fill="#636569" d="M101.1,103.8c0.3-0.5,0.6-1.1,0.7-1.7c0.1-0.6,0.1-1.3-0.3-1.7c-0.4-0.5-0.6-1.2-0.5-1.9    c0.1-0.6,0.5-1.2,0.9-1.7c-0.3,0.5-0.6,1.1-0.7,1.7c-0.1,0.6,0.1,1.2,0.5,1.7c0.4,0.5,0.5,1.3,0.3,1.9    C101.8,102.7,101.5,103.3,101.1,103.8z"></path>		</g>		<g display="inline">			<path fill="#EA571C" d="M99.5,103.8c0.3-0.6,0.5-1.2,0.6-1.8s0.1-1.2-0.3-1.7c-0.4-0.5-0.6-1.3-0.5-1.9c0.1-0.7,0.5-1.2,0.9-1.7    c-0.3,0.6-0.6,1.1-0.6,1.7c0,0.6,0.1,1.2,0.5,1.7c0.4,0.5,0.5,1.3,0.3,2C100.2,102.8,99.9,103.4,99.5,103.8z"></path>		</g>		<g display="inline">			<path fill="#636569" d="M97.9,103.8c0.3-0.5,0.6-1.1,0.7-1.7c0.1-0.6,0.1-1.3-0.3-1.7c-0.4-0.5-0.6-1.2-0.5-1.9    c0.1-0.6,0.5-1.2,0.9-1.7c-0.3,0.5-0.6,1.1-0.7,1.7c-0.1,0.6,0.1,1.2,0.5,1.7c0.4,0.5,0.5,1.3,0.3,1.9    C98.6,102.7,98.3,103.3,97.9,103.8z"></path>		</g>		<g display="inline">			<path fill="#EA571C" d="M96.3,103.8c0.3-0.6,0.5-1.2,0.6-1.8c0.1-0.6,0.1-1.2-0.3-1.7c-0.4-0.5-0.6-1.3-0.5-1.9    c0.1-0.7,0.5-1.2,0.9-1.7c-0.3,0.6-0.6,1.1-0.6,1.7c-0.1,0.6,0.1,1.2,0.5,1.7c0.4,0.5,0.5,1.3,0.3,2    C97,102.8,96.7,103.4,96.3,103.8z"></path>		</g>	</g>	<g id="nettoyage">		<g display="inline">							<path fill="#FFFFFF" stroke="#EA571C" stroke-width="0.2588" stroke-linecap="round" stroke-linejoin="round" stroke-miterlimit="10" d="    M94.7,100.5c0,0,2.9,0,3.5-0.4l0,0c0.4-0.6,0.4-3.5,0.4-3.5l0,0c0,0,0,2.9,0.4,3.5l0,0c0.6,0.4,3.5,0.4,3.5,0.4l0,0    c0,0-2.9,0-3.5,0.4l0,0c-0.4,0.6-0.4,3.5-0.4,3.5l0,0c0,0,0-2.9-0.4-3.5v0C97.6,100.4,94.7,100.5,94.7,100.5L94.7,100.5z"></path>		</g>		<g display="inline">							<path fill="#FFFFFF" stroke="#636569" stroke-width="0.1725" stroke-linecap="round" stroke-linejoin="round" stroke-miterlimit="10" d="    M99.3,97.9c0,0,1.4,0,1.6-0.2l0,0c0.2-0.3,0.2-1.6,0.2-1.6l0,0c0,0,0,1.4,0.2,1.6h0c0.3,0.2,1.6,0.2,1.6,0.2l0,0    c0,0-1.4,0-1.6,0.2v0c-0.2,0.3-0.2,1.6-0.2,1.6l0,0c0,0,0-1.4-0.2-1.6v0C100.7,97.9,99.3,97.9,99.3,97.9L99.3,97.9z"></path>		</g>	</g>	<g id="automatisation">		<path display="inline" fill="#FFFFFF" stroke="#EA571C" stroke-width="0.2982" stroke-miterlimit="10" d="M102,98l-0.3-0.3   c-0.1-0.1-0.2-0.1-0.3,0l-0.2,0.2c-0.1-0.1-0.3-0.1-0.5-0.2l-0.1-0.2c0-0.1-0.1-0.2-0.3-0.2l-0.4,0c-0.1,0-0.2,0.1-0.2,0.2l0,0.2   c-0.2,0.1-0.3,0.1-0.4,0.2l-0.2-0.1c-0.1-0.1-0.2-0.1-0.3,0l-0.3,0.3c-0.1,0.1-0.1,0.2,0,0.3l0.2,0.2c-0.1,0.1-0.1,0.3-0.1,0.4   l-0.3,0.1c-0.1,0-0.2,0.1-0.2,0.3l0,0.4c0,0.1,0.1,0.2,0.2,0.2l0.3,0c0.1,0.1,0.1,0.3,0.2,0.4l-0.2,0.2c-0.1,0.1-0.1,0.2,0,0.3   l0.3,0.3c0.1,0.1,0.2,0.1,0.3,0l0.2-0.2c0.1,0.1,0.3,0.1,0.4,0.1l0.1,0.3c0,0.1,0.1,0.2,0.3,0.2l0.4,0c0.1,0,0.2-0.1,0.2-0.2   l0-0.3c0.1-0.1,0.3-0.1,0.4-0.2l0.2,0.1c0.1,0.1,0.2,0.1,0.3,0l0.3-0.3c0.1-0.1,0.1-0.2,0-0.3l-0.2-0.2c0.1-0.1,0.1-0.3,0.1-0.4   l0.3-0.1c0.1,0,0.2-0.1,0.2-0.3l0-0.4c0-0.1-0.1-0.2-0.2-0.2l-0.3,0c-0.1-0.1-0.1-0.3-0.2-0.4l0.1-0.2C102.1,98.2,102.1,98,102,98   z M100.5,100.3c-0.4,0-0.8-0.3-0.9-0.7c0-0.4,0.3-0.8,0.7-0.9c0.4,0,0.8,0.3,0.9,0.7C101.2,99.9,100.9,100.3,100.5,100.3z"></path>		<path display="inline" fill="#FFFFFF" stroke="#636569" stroke-width="0.1988" stroke-miterlimit="10" d="M95.4,101.4   c-0.1,0-0.2,0.1-0.2,0.3v0.3c0,0.1,0.1,0.2,0.2,0.3l0.2,0c0,0.1,0.1,0.2,0.1,0.3l-0.1,0.1c-0.1,0.1-0.1,0.2,0,0.3l0.2,0.2   c0.1,0.1,0.2,0.1,0.3,0l0.1-0.1c0.1,0.1,0.2,0.1,0.3,0.1l0,0.2c0,0.1,0.1,0.2,0.2,0.2h0.3c0.1,0,0.2-0.1,0.3-0.2l0-0.2   c0.1,0,0.2-0.1,0.4-0.1l0.1,0.1c0.1,0.1,0.2,0.1,0.3,0l0.2-0.2c0.1-0.1,0.1-0.2,0-0.3l-0.1-0.1c0.1-0.1,0.1-0.2,0.1-0.3l0.2,0   c0.1,0,0.2-0.1,0.2-0.2v-0.3c0-0.1-0.1-0.2-0.2-0.3l-0.2,0c0-0.1-0.1-0.2-0.1-0.4l0.1-0.1c0.1-0.1,0.1-0.2,0-0.3l-0.2-0.2   c-0.1-0.1-0.2-0.1-0.3,0l-0.1,0.1c-0.1-0.1-0.2-0.1-0.4-0.2l0-0.2c0-0.1-0.1-0.2-0.2-0.2H97c-0.1,0-0.2,0.1-0.3,0.2l0,0.1   c-0.1,0-0.3,0.1-0.4,0.2l-0.1-0.1c-0.1-0.1-0.2-0.1-0.3,0l-0.2,0.2c-0.1,0.1-0.1,0.2,0,0.3l0.1,0.1c-0.1,0.1-0.1,0.2-0.1,0.4   L95.4,101.4z M97.1,101.1c0.4,0,0.6,0.3,0.6,0.7c0,0.4-0.3,0.6-0.7,0.6c-0.4,0-0.6-0.3-0.6-0.7C96.4,101.4,96.7,101.1,97.1,101.1z   "></path>	</g>	<g id="services">		<path display="inline" fill="#FFFFFF" stroke="#636569" stroke-width="0.2382" stroke-miterlimit="10" d="M100.7,100.5   c0.4-0.2,0.7-0.7,0.7-1.2c0-0.7-0.6-1.3-1.3-1.3s-1.3,0.6-1.3,1.3c0,0.5,0.3,1,0.8,1.2c-1,0.3-1.6,1.3-1.6,2.5c0,0,0,0,0,0.1h4.5   c0,0,0,0,0-0.1C102.3,101.8,101.6,100.8,100.7,100.5z"></path>		<path display="inline" fill="#FFFFFF" stroke="#EA571C" stroke-width="0.3572" stroke-miterlimit="10" d="M101,103.3   c0-1.4-0.8-2.6-2-3c0.5-0.3,0.9-0.8,0.9-1.4c0-0.9-0.7-1.6-1.6-1.6s-1.6,0.7-1.6,1.6c0,0.6,0.4,1.2,0.9,1.4   c-1.1,0.4-1.9,1.6-1.9,3c0,0,0,0,0,0.1"></path>		<path display="inline" fill="#FFFFFF" stroke="#EA571C" stroke-width="0.3572" stroke-miterlimit="10" d="M100.9,103.3"></path>	</g>	<g id="so-ilo_1_" display="inline">		<polygon fill="#FFFFFF" stroke="#636569" stroke-width="3.7671" stroke-miterlimit="10" points="78,62 78,163.1 167.2,163.1    167.2,62 123.6,34.2   "></polygon>		<polyline fill="#FFFFFF" stroke="#34B200" stroke-width="5.6517" stroke-miterlimit="10" points="141.4,171 141.4,58 91.9,26.3    42.3,58 42.3,171   "></polyline>	</g>	<g display="inline">		<path fill="#34B200" d="M58.4,86.3c2.4-0.5,5.4-0.8,8.8-0.8c3.7,0,7.3,0.5,10.1,2.8c2.1,1.8,3,4.4,3,7.2c0,3.5-1.8,7-5.8,8.7v0.2   c4.6,1.3,7.1,5.1,7.1,9.5c0,3.3-1.1,5.8-2.9,7.8c-2.4,2.6-6.4,4-13,4c-3,0-5.4-0.2-7.2-0.4V86.3z M66.1,102h1.6   c2.8,0,4.9-2.4,4.9-5.6c0-2.9-1.4-5.1-4.5-5.1c-0.8,0-1.5,0.1-2,0.2V102z M66.1,119.6c0.5,0.1,1,0.1,1.7,0.1c3.1,0,5.7-1.9,5.7-6   c0-4-2.7-6-5.8-6.1h-1.6V119.6z"></path>		<path fill="#34B200" d="M94.6,85.7v39.7h-7.7V85.7H94.6z"></path>		<path fill="#34B200" d="M125,104.8c0,15-5.3,21.1-12.9,21.1c-9,0-12.6-9.6-12.6-20.5c0-10.8,4.3-20.2,13.1-20.2   C122.3,85.2,125,95.7,125,104.8z M107.6,105.5c0,9,1.7,13.6,4.8,13.6c3.2,0,4.5-5.9,4.5-14c0-7-1-13.3-4.5-13.3   C109.3,91.9,107.6,97,107.6,105.5z"></path>	</g></g><g id="automatisme" display="none">	<g id="automatisation_1_" display="inline">		<g>			<path fill="#FFFFFF" d="M155,52.8l-5.7-4.7c-1.7-1.5-4.2-1.5-5.9,0l-3,3c-2.7-1.3-5.5-2.3-8.3-2.8l-0.9-4.2    c-0.4-2.3-2.5-3.8-4.7-3.6l-7.4,0.6c-2.3,0.2-4,2.1-4,4.4l-0.2,4.4c-2.8,0.9-5.5,2.5-8,4.2l-3.8-2.5c-1.9-1.3-4.4-0.9-5.9,0.8    l-4.7,5.7c-1.5,1.9-1.3,4.4,0.2,6.1l3.2,3.4c-1.1,2.5-1.9,5.1-2.5,8l-4.5,0.9c-2.3,0.4-3.8,2.5-3.6,4.7l0.6,7.4    c0.2,2.3,2.1,4,4.4,4.2l5.1,0.2c0.9,2.5,2.1,4.7,3.6,6.8l-2.8,4.2c-1.3,1.9-0.9,4.4,0.8,5.9l5.7,4.7c1.7,1.5,4.4,1.3,5.9-0.2    l3.6-3.4c2.5,1.1,4.9,1.9,7.6,2.5l1.1,4.9c0.4,2.3,2.5,3.8,4.7,3.6l7.4-0.6c2.3-0.2,4-2.1,4.2-4.4l0.2-4.9    c2.7-0.9,5.3-2.3,7.6-3.8l4,2.7c1.9,1.3,4.4,0.9,5.9-0.8l4.7-5.7c1.5-1.7,1.3-4.4-0.2-5.9l-3.2-3.6c1.1-2.5,2.1-5.1,2.7-8    l4.5-0.9c2.3-0.4,3.8-2.5,3.6-4.7l-0.8-7.4c-0.2-2.1-2.1-4-4.4-4l-4.5-0.2c-0.9-2.7-2.3-5.1-3.8-7.4l2.5-3.6    C157.1,56.8,156.7,54.2,155,52.8z M127.3,95.3c-8,0.8-15-5.3-15.5-13.3c-0.8-8,5.1-15,13.1-15.5c8-0.8,15,5.3,15.5,13.3    C141.1,87.5,135.3,94.5,127.3,95.3z"></path>			<path fill="#EA571C" d="M125,124.5c-3.4,0-6.4-2.5-7-5.9l-0.7-3.1c-1.7-0.4-3.3-0.9-4.8-1.5l-2.3,2.2c-2.5,2.5-6.8,2.6-9.5,0.3    l-5.6-4.7c-2.9-2.5-3.3-6.5-1.2-9.5l1.8-2.6c-0.8-1.3-1.5-2.7-2.2-4.2l-3.4-0.1c-3.8-0.3-6.7-3.1-7-6.6l-0.6-7.4    c-0.3-3.7,2.2-7,5.8-7.6l2.7-0.6c0.4-1.9,0.9-3.5,1.6-5.1l-2-2.1c-2.5-2.8-2.6-6.7-0.3-9.6l4.8-5.7c2.5-2.8,6.5-3.3,9.5-1.2    l2.2,1.5c1.9-1.2,3.6-2.1,5.3-2.8l0.1-2.6c0-3.6,2.8-6.6,6.5-6.9l7.4-0.6c3.6-0.3,7,2.2,7.6,5.8l0.5,2.4c1.9,0.5,3.7,1.1,5.5,1.9    l1.7-1.7c2.8-2.5,6.8-2.6,9.6-0.1l5.6,4.7c2.8,2.2,3.4,6.5,1.3,9.5l-1.4,2.1c0.9,1.5,1.7,3.1,2.4,4.7l2.8,0.1l0,0    c3.5,0,6.6,2.9,6.9,6.4l0.8,7.4c0.3,3.8-2.2,7.1-5.8,7.7l-2.7,0.6c-0.4,1.7-1,3.4-1.7,5.2l2.1,2.3c2.5,2.5,2.6,6.8,0.2,9.5    l-4.7,5.6c-2.5,2.8-6.5,3.3-9.5,1.2l-2.5-1.6c-1.6,0.9-3.2,1.7-4.9,2.5l-0.1,3.1c-0.3,3.8-3.1,6.6-6.6,6.9l-7.4,0.6    C125.4,124.5,125.2,124.5,125,124.5z M111.4,107.6l1.7,0.8c2.1,1,4.3,1.7,7,2.3l1.7,0.4l1.5,6.6c0.2,1,1.2,1.7,1.9,1.5l7.4-0.6    c0.9-0.1,1.6-0.9,1.7-1.9l0.3-6.6l1.7-0.6c2.5-0.9,4.9-2.1,7-3.5l1.5-1l5.5,3.6c0.8,0.6,1.8,0.3,2.4-0.3l4.7-5.6    c0.6-0.7,0.5-1.7,0-2.2l-4.5-5l0.7-1.6c1.2-2.6,2-5,2.5-7.3l0.3-1.8l6.3-1.3c1-0.2,1.5-1,1.5-1.9l-0.7-7.3    c-0.1-0.7-0.8-1.6-1.7-1.6l-6.5-0.3l-0.6-1.7c-0.8-2.3-2-4.6-3.5-6.8l-1-1.5l3.5-5.1c0.6-0.8,0.4-1.8-0.2-2.2l-0.1-0.1l-5.7-4.7    c-0.7-0.7-1.7-0.6-2.4-0.1l-4.3,4.3l-1.7-0.9c-2.4-1.2-5-2.1-7.7-2.6l-1.7-0.3l-1.3-5.9c-0.2-0.9-0.9-1.5-1.7-1.5    c0,0-0.1,0-0.1,0l-7.4,0.6c-0.8,0.1-1.5,0.8-1.5,1.7l-0.3,6.3l-1.8,0.6c-2.3,0.7-4.6,2-7.3,3.8l-1.5,1l-5.3-3.4    c-0.9-0.6-1.8-0.3-2.4,0.3l-4.7,5.6c-0.7,0.9-0.4,1.9,0.1,2.5l4.4,4.7l-0.8,1.7c-1,2.1-1.7,4.4-2.3,7.3l-0.3,1.8L89.4,79    c-0.9,0.2-1.5,1-1.5,1.9l0.6,7.4c0.1,0.9,0.9,1.6,1.9,1.7l6.8,0.2l0.6,1.7c1,2.5,2,4.5,3.3,6.2l1.1,1.5l-3.9,5.7    c-0.5,0.7-0.4,1.7,0.3,2.3l5.6,4.7c0.7,0.6,1.7,0.5,2.2,0L111.4,107.6z M125.9,98c-4,0-7.8-1.4-10.8-4c-3.6-3-5.7-7.2-6-11.8    c-0.4-4.5,1-9,3.9-12.5c3-3.5,7.1-5.6,11.7-5.9c4.4-0.5,8.9,1,12.4,3.9c3.6,3,5.7,7.2,6,11.8c0.4,4.3-0.9,8.7-3.8,12.2    c-2.9,3.6-7.1,5.8-11.7,6.2l0,0C127,98,126.5,98,125.9,98z M126.2,69.1c-0.4,0-0.7,0-1.1,0.1c-3.2,0.2-6,1.7-8,4    c-2,2.4-3,5.4-2.7,8.6c0.2,3.2,1.7,6.1,4.1,8.2c2.4,2,5.4,2.9,8.5,2.7l0,0c3.2-0.3,6-1.8,8.1-4.3c1.9-2.4,2.9-5.3,2.6-8.3    c-0.2-3.2-1.7-6.1-4.1-8.2C131.5,70.1,128.9,69.1,126.2,69.1z"></path>		</g>		<g>			<path fill="#FFFFFF" d="M36.3,115c-2.3,0.4-4,2.3-4,4.5v4.5c0,2.3,1.7,4.2,4,4.5l3.4,0.4c0.6,2.1,1.3,4,2.3,5.9l-2.3,2.5    c-1.3,1.7-1.3,4.4,0.4,5.9l3.2,3.2c1.5,1.7,4,1.9,5.9,0.6l2.7-2.1c1.9,1.1,3.8,1.9,5.9,2.7l0.4,3.4c0.2,2.3,2.1,4,4.4,4H67    c2.3,0,4.2-1.7,4.5-4l0.4-3.2c2.3-0.6,4.4-1.3,6.4-2.5l2.5,2.1c1.9,1.3,4.4,1.3,6.1-0.4l3.2-3.2c1.7-1.5,1.9-4.2,0.4-5.9    l-1.9-2.5c1.1-1.9,2.1-4,2.7-6.3l3-0.4c2.3-0.2,4-2.1,4-4.4v-4.5c0-2.3-1.7-4.2-4-4.5l-2.8-0.2c-0.6-2.3-1.3-4.4-2.5-6.4l1.9-2.3    c1.3-1.7,1.3-4.2-0.4-5.9l-3-3.2c-1.7-1.5-4.2-1.7-6.1-0.4l-2.1,1.7c-2.1-1.3-4.2-2.3-6.4-2.8L72.5,93c-0.2-2.3-2.1-4-4.4-4h-4.5    c-2.3,0-4.2,1.7-4.5,4l-0.4,2.7c-2.3,0.6-4.5,1.5-6.6,2.8l-2.3-1.9c-1.7-1.5-4.4-1.3-5.9,0.2l-3.4,3.2c-1.7,1.5-1.9,4.2-0.4,5.9    l1.9,2.5c-0.9,2.1-1.9,4.2-2.5,6.4L36.3,115z M65.7,109.9c6.4,0,11.8,5.5,11.6,11.9c0,6.4-5.5,11.8-11.9,11.6    c-6.4,0-11.8-5.5-11.6-11.9C53.8,115,59.1,109.9,65.7,109.9z"></path>			<path fill="#636569" d="M67,156.8h-4.6c-3.2,0-5.9-2.4-6.2-5.6l-0.2-2.3c-1.5-0.5-2.8-1.1-4-1.8l-1.7,1.3    c-2.8,1.9-6.2,1.6-8.3-0.8l-3.2-3.1c-2.2-2-2.5-5.7-0.5-8.3l1.5-1.7c-0.6-1.3-1.1-2.6-1.5-3.9l-2.2-0.2c-3.3-0.5-5.6-3.2-5.6-6.3    v-4.5c0-3.1,2.3-5.8,5.5-6.3l0.2,0l1.9-0.1c0.5-1.6,1.1-3.1,1.8-4.5l-1.2-1.6c-1-1.1-1.5-2.6-1.4-4.2c0.1-1.6,0.8-3.1,2-4.1    l3.4-3.2c2.2-2.2,6-2.3,8.3-0.2l1.3,1c1.5-0.9,3.2-1.6,4.8-2.1l0.2-1.5c0.5-3.2,3.2-5.5,6.3-5.5h4.6c3.2,0,5.9,2.4,6.2,5.6    l0.2,1.6c1.6,0.5,3.1,1.2,4.7,2.1l1.1-0.9c2.6-1.9,6-1.7,8.4,0.4l3.1,3.3c2.2,2.2,2.5,5.7,0.5,8.2l-1.2,1.4    c0.7,1.4,1.2,2.9,1.7,4.5l1.6,0.1c3.3,0.5,5.7,3.2,5.7,6.3v4.6c0,3.2-2.4,5.9-5.6,6.2l-1.8,0.2c-0.5,1.5-1.1,3-1.9,4.5l1.2,1.5    c1,1.1,1.5,2.6,1.4,4.2c-0.1,1.6-0.8,3.1-2,4.1l-3.1,3.2c-2.2,2.2-5.7,2.5-8.4,0.6l-1.7-1.4c-1.4,0.7-2.9,1.3-4.6,1.8l-0.2,2    C72.8,154.5,70.2,156.8,67,156.8z M51.7,142.7l1.1,0.6c1.7,1,3.4,1.7,5.6,2.5l1,0.4l0.5,4.5c0.1,1.4,1.2,2.4,2.6,2.4H67    c1.4,0,2.5-1,2.8-2.5l0.5-4.4l1.2-0.3c2.3-0.6,4.2-1.3,6-2.3l1.1-0.6L82,146c0.8,0.6,2.4,0.9,3.6-0.3l3.2-3.2    c0.6-0.5,0.8-1.1,0.9-1.7s-0.2-1.2-0.6-1.7l-2.7-3.5l0.6-1.1c1.1-1.9,2-3.8,2.4-5.8l0.3-1.2l4.3-0.5c1.4-0.1,2.4-1.2,2.4-2.6    v-4.6c0-1.4-1-2.5-2.5-2.8l-4-0.3l-0.3-1.3c-0.6-2.3-1.3-4.2-2.3-6l-0.6-1.1l2.7-3.2c0.7-0.8,0.9-2.3-0.3-3.4l-3.1-3.3    c-1-0.9-2.5-1-3.7-0.1l-3,2.5l-1.1-0.7c-2-1.3-3.9-2.1-5.9-2.6l-1.2-0.3l-0.5-4.1c-0.1-1.4-1.2-2.4-2.6-2.4h-4.6    c-1.4,0-2.5,1-2.8,2.5l-0.5,3.8l-1.2,0.3c-2.1,0.5-4.2,1.4-6.1,2.6l-1.1,0.7L48.6,98c-1-0.9-2.6-0.8-3.4,0.1l-3.4,3.2    c-0.5,0.5-0.8,1.1-0.8,1.7c0,0.6,0.2,1.2,0.6,1.7l2.6,3.4l-0.5,1c-0.9,1.9-1.8,4-2.4,6.1l-0.3,1.3l-4.4,0.3    c-1.4,0.3-2.4,1.4-2.4,2.8v4.5c0,1.4,1,2.5,2.5,2.8l4.5,0.5l0.3,1.2c0.5,1.9,1.2,3.7,2.1,5.5l0.6,1.1l-3.1,3.4    c-0.6,0.8-0.7,2.4,0.2,3.3l3.3,3.3c0.9,1.1,2.4,1.2,3.6,0.4L51.7,142.7z M65.7,135.2c-3.7-0.1-7.2-1.4-9.9-4.1    c-2.5-2.6-3.9-6.1-3.8-9.7c0-7.3,6.2-13.3,13.8-13.3c3.6,0,7,1.5,9.5,4.1c2.5,2.6,3.9,6.1,3.8,9.7c0,3.5-1.5,6.9-4.1,9.5    C72.5,133.8,69.1,135.2,65.7,135.2z M65.7,111.7c-5.7,0-10.1,4.3-10.1,9.8c-0.1,2.7,0.9,5.2,2.8,7.1c1.9,2,4.6,3.1,7.3,3    c2.6,0,5-1,6.8-2.8c1.9-1.9,3-4.3,3-7c0.1-2.7-0.9-5.2-2.8-7.2C70.8,112.7,68.3,111.7,65.7,111.7z"></path>		</g>	</g></g><g id="nettoyage_1_" display="none">	<g display="inline">		<g id="nettoyage_2_">			<g>									<path fill="#FFFFFF" stroke="#EA571C" stroke-width="4.5206" stroke-linecap="round" stroke-linejoin="round" stroke-miterlimit="10" d="     M24.4,104.3c0,0,51.1,0.7,61.4-6.9l0,0c7.5-10,6.9-61.4,6.9-61.4l0,0c0,0-0.7,51.1,6.9,61.4l0.4,0.2c9.9,7.7,61.2,6.9,61.2,6.9     l0,0c0,0-51.1-0.7-61.4,6.9l-0.4,0.2c-7.5,10-6.8,61.4-6.8,61.4l0,0c0,0,0.7-51.1-6.9-61.4v-0.4     C75.5,103.8,24.4,104.3,24.4,104.3L24.4,104.3z"></path>			</g>			<g>									<path fill="#FFFFFF" stroke="#636569" stroke-width="3.0138" stroke-linecap="round" stroke-linejoin="round" stroke-miterlimit="10" d="     M105.3,60.1c0,0,23.7,0.4,28.5-3.1l0,0c3.5-4.9,3.1-28.7,3.1-28.7l0,0c0,0-0.4,23.7,3.1,28.5h0.2c4.7,3.5,28.5,3.1,28.5,3.1l0,0     c0,0-23.7-0.4-28.5,3.1l0,0.4c-3.5,4.7-3.3,28.5-3.3,28.5l0,0c0,0,0.4-23.7-3.1-28.5v-0.2C129,59.7,105.3,60.1,105.3,60.1     L105.3,60.1z"></path>			</g>		</g>	</g></g><g id="manutention_2_">	<g id="manutention_1_">		<polygon fill="#FFFFFF" stroke="#636569" stroke-width="3.441" stroke-miterlimit="10" points="94.1,145.8 63.9,93.6 57.2,100.4    21.5,64.8 13,73 48.7,108.9 41.9,115.7   "></polygon>		<polygon fill="#FFFFFF" stroke="#EA571C" stroke-width="5.1614" stroke-miterlimit="10" points="183.6,71.3 135.2,99.3    141.6,105.5 108.5,138.6 116.3,146.4 149.4,113.3 155.8,119.7   "></polygon>	</g></g><g id="sechage_2_" display="none">	<g id="sechage_1_" display="inline">		<g>			<path fill="#636569" d="M135,165.6c6.3-9.8,10.5-20.9,12.8-31.8c2.3-11.1,1.5-23-5.8-32c-7.1-9.2-10.9-22-8.8-33.9    s8.4-22.2,15.7-31.2c-6.3,9.6-11.5,20.5-13,31.6c-1.2,11.3,2.1,22.4,9.4,31.4c7.5,9.8,8.6,23.4,5.4,34.7    C147.6,145.8,142.4,156.6,135,165.6z"></path>		</g>		<g>			<path fill="#EA571C" d="M105.4,165.6c5.6-10.2,9.6-21.1,11.5-32.2s1.3-22-5.9-30.7c-7.1-9.4-11.5-23-9-35.1    c2.7-12.1,9.2-22.6,17.3-31.1c-5.8,10.2-10.5,20.9-11.7,31.8c-0.6,10.9,2.3,21.5,9.6,30.3c7.7,10,8.8,24.7,5.2,35.8    C119,146.2,113.5,157.1,105.4,165.6z"></path>		</g>		<g>			<path fill="#636569" d="M75.9,165.6c6.3-9.8,10.5-20.9,12.8-31.8c2.3-11.1,1.5-23-5.8-32c-7.1-9.2-11.1-22-9-33.9    c2.3-11.9,8.4-22.2,15.9-31.2c-6.3,9.6-11.5,20.5-13,31.6c-1.3,11.3,1.9,22.4,9.2,31.4c7.7,9.8,8.6,23.4,5.4,34.7    C88.6,145.8,83.2,156.6,75.9,165.6z"></path>		</g>		<g>			<path fill="#EA571C" d="M46.4,165.6c5.6-10.2,9.6-21.3,11.5-32.2c1.9-11.1,1.3-22-5.9-30.7c-7.1-9.4-11.5-23-9-35.1    c2.7-12.1,9.2-22.6,17.3-31.1c-5.6,10.2-10.4,20.9-11.5,31.8c-1,10.9,2.1,21.5,9.4,30.3c7.7,10,8.8,24.7,5.2,35.8    C60,146.2,54.4,157.1,46.4,165.6z"></path>		</g>	</g></g><g id="stockage_1_" display="none">	<g display="inline">		<g id="so-ilo_2_">			<polygon fill="#FFFFFF" stroke="#636569" stroke-width="3.7132" stroke-miterlimit="10" points="74.5,61.4 74.5,161 162.4,161     162.4,61.4 119.4,36    "></polygon>			<polyline fill="#FFFFFF" stroke="#EA571C" stroke-width="5.5708" stroke-miterlimit="10" points="137,168.9 137,57.5 88.2,28.2     39.3,57.5 39.3,168.9    "></polyline>		</g>	</g></g><g id="Calque_5_1_">	<rect y="0" fill="none" stroke="#FFFFFF" stroke-miterlimit="10" width="200" height="200"></rect></g></svg>